{
  "source": "C:\\Users\\Peter\\Desktop\\stuff\\MIUN\\quantitative_research\\video_compression\\videos\\BVI-HD\\BVI-HD_CDVL_videos\\ORIG\\TreeGrassFamily_1920x1080_30fps.mp4",
  "output": "C:\\Users\\Peter\\Desktop\\stuff\\MIUN\\quantitative_research\\video_compression\\compressed_videos\\BVI-HD\\vp9\\8\\TreeGrassFamily_1920x1080_30fps_vp9.webm",
  "codec": "vp9",
  "ok": "Input #0, mov,mp4,m4a,3gp,3g2,mj2, from 'C:\\Users\\Peter\\Desktop\\stuff\\MIUN\\quantitative_research\\video_compression\\videos\\BVI-HD\\BVI-HD_CDVL_videos\\ORIG\\TreeGrassFamily_1920x1080_30fps.mp4':\n  Metadata:\n    major_brand     : isom\n    minor_version   : 512\n    compatible_brands: isomiso2avc1mp41\n    encoder         : Lavf54.28.101\n  Duration: 00:00:05.00, start: 0.000000, bitrate: 331787 kb/s\n  Stream #0:0[0x1](und): Video: h264 (High 4:4:4 Predictive) (avc1 / 0x31637661), yuv420p(progressive), 1920x1080, 331784 kb/s, 30 fps, 30 tbr, 30 tbn (default)\n    Metadata:\n      handler_name    : VideoHandler\n      vendor_id       : [0][0][0][0]\n[out#0/webm @ 000002a653140b80] Codec AVOption b:a (set bitrate (in bits/s)) has not been used for any stream. The most likely reason is either wrong type (e.g. a video option with no video streams) or that it is a private option of some decoder which was not actually used for any stream.\nStream mapping:\n  Stream #0:0 -> #0:0 (h264 (native) -> vp9 (libvpx-vp9))\nPress [q] to stop, [?] for help\n[libvpx-vp9 @ 000002a653c607c0] v1.15.2-100-g40561f514\nOutput #0, webm, to 'C:\\Users\\Peter\\Desktop\\stuff\\MIUN\\quantitative_research\\video_compression\\compressed_videos\\BVI-HD\\vp9\\8\\TreeGrassFamily_1920x1080_30fps_vp9.webm':\n  Metadata:\n    major_brand     : isom\n    minor_version   : 512\n    compatible_brands: isomiso2avc1mp41\n    encoder         : Lavf62.3.100\n  Stream #0:0(und): Video: vp9, yuv420p(tv, progressive), 1920x1080, q=2-31, 8000 kb/s, 30 fps, 1k tbn (default)\n    Metadata:\n      encoder         : Lavc62.11.100 libvpx-vp9\n      handler_name    : VideoHandler\n      vendor_id       : [0][0][0][0]\n    Side data:\n      cpb: bitrate max/min/avg: 0/0/0 buffer size: 8000000 vbv_delay: N/A\nframe=    0 fps=0.0 q=0.0 size=       0KiB time=N/A bitrate=N/A speed=N/A elapsed=0:00:00.52    \nframe=    2 fps=1.6 q=23.0 size=       1KiB time=00:00:00.06 bitrate=  76.1kbits/s speed=0.0539x elapsed=0:00:01.23    \nframe=    5 fps=2.8 q=50.0 size=       1KiB time=00:00:00.16 bitrate=  30.4kbits/s speed=0.0946x elapsed=0:00:01.76    \nframe=    9 fps=3.9 q=49.0 size=       1KiB time=00:00:00.30 bitrate=  16.9kbits/s speed=0.132x elapsed=0:00:02.28    \nframe=   12 fps=4.2 q=49.0 size=       1KiB time=00:00:00.40 bitrate=  12.7kbits/s speed=0.142x elapsed=0:00:02.82    \nframe=   15 fps=4.5 q=48.0 size=       1KiB time=00:00:00.50 bitrate=  10.1kbits/s speed=0.149x elapsed=0:00:03.36    \nframe=   18 fps=4.6 q=49.0 size=       1KiB time=00:00:00.60 bitrate=   8.5kbits/s speed=0.155x elapsed=0:00:03.88    \nframe=   20 fps=4.5 q=49.0 size=       1KiB time=00:00:00.66 bitrate=   7.6kbits/s speed=0.151x elapsed=0:00:04.40    \nframe=   22 fps=4.4 q=49.0 size=       1KiB time=00:00:00.73 bitrate=   6.9kbits/s speed=0.148x elapsed=0:00:04.94    \nframe=   25 fps=4.5 q=49.0 size=       1KiB time=00:00:00.83 bitrate=   6.1kbits/s speed=0.151x elapsed=0:00:05.52    \nframe=   28 fps=4.6 q=49.0 size=       1KiB time=00:00:00.93 bitrate=   5.4kbits/s speed=0.154x elapsed=0:00:06.07    \nframe=   30 fps=4.5 q=49.0 size=       1KiB time=00:00:01.00 bitrate=   5.1kbits/s speed=0.151x elapsed=0:00:06.61    \nframe=   33 fps=4.6 q=48.0 size=       1KiB time=00:00:01.10 bitrate=   4.6kbits/s speed=0.153x elapsed=0:00:07.17    \nframe=   35 fps=4.5 q=49.0 size=       1KiB time=00:00:01.16 bitrate=   4.3kbits/s speed=0.151x elapsed=0:00:07.71    \nframe=   37 fps=4.5 q=49.0 size=       1KiB time=00:00:01.23 bitrate=   4.1kbits/s speed=0.149x elapsed=0:00:08.29    \nframe=   39 fps=4.4 q=49.0 size=       1KiB time=00:00:01.30 bitrate=   3.9kbits/s speed=0.147x elapsed=0:00:08.84    \nframe=   40 fps=4.2 q=49.0 size=       1KiB time=00:00:01.33 bitrate=   3.8kbits/s speed=0.14x elapsed=0:00:09.50    \nframe=   42 fps=4.1 q=51.0 size=       1KiB time=00:00:01.40 bitrate=   3.6kbits/s speed=0.137x elapsed=0:00:10.19    \nframe=   44 fps=4.0 q=50.0 size=       1KiB time=00:00:01.46 bitrate=   3.5kbits/s speed=0.133x elapsed=0:00:10.99    \nframe=   46 fps=3.9 q=50.0 size=       1KiB time=00:00:01.53 bitrate=   3.3kbits/s speed=0.13x elapsed=0:00:11.76    \nframe=   48 fps=3.9 q=51.0 size=       1KiB time=00:00:01.60 bitrate=   3.2kbits/s speed=0.129x elapsed=0:00:12.39    \nframe=   50 fps=3.9 q=51.0 size=       1KiB time=00:00:01.66 bitrate=   3.0kbits/s speed=0.129x elapsed=0:00:12.93    \nframe=   52 fps=3.8 q=51.0 size=       1KiB time=00:00:01.73 bitrate=   2.9kbits/s speed=0.128x elapsed=0:00:13.54    \nframe=   54 fps=3.8 q=50.0 size=       1KiB time=00:00:01.80 bitrate=   2.8kbits/s speed=0.127x elapsed=0:00:14.16    \nframe=   56 fps=3.8 q=50.0 size=       1KiB time=00:00:01.86 bitrate=   2.7kbits/s speed=0.127x elapsed=0:00:14.70    \nframe=   58 fps=3.8 q=51.0 size=       1KiB time=00:00:01.93 bitrate=   2.6kbits/s speed=0.126x elapsed=0:00:15.37    \nframe=   60 fps=3.8 q=51.0 size=       1KiB time=00:00:02.00 bitrate=   2.5kbits/s speed=0.125x elapsed=0:00:15.95    \nframe=   60 fps=3.6 q=51.0 size=       1KiB time=00:00:02.00 bitrate=   2.5kbits/s speed=0.121x elapsed=0:00:16.46    \nframe=   63 fps=3.7 q=49.0 size=       1KiB time=00:00:02.10 bitrate=   2.4kbits/s speed=0.124x elapsed=0:00:16.98    \nframe=   65 fps=3.7 q=50.0 size=       1KiB time=00:00:02.16 bitrate=   2.3kbits/s speed=0.123x elapsed=0:00:17.55    \nframe=   67 fps=3.7 q=51.0 size=       1KiB time=00:00:02.23 bitrate=   2.3kbits/s speed=0.123x elapsed=0:00:18.09    \nframe=   68 fps=3.7 q=51.0 size=       1KiB time=00:00:02.26 bitrate=   2.2kbits/s speed=0.122x elapsed=0:00:18.60    \nframe=   70 fps=3.7 q=51.0 size=       1KiB time=00:00:02.33 bitrate=   2.2kbits/s speed=0.122x elapsed=0:00:19.12    \nframe=   72 fps=3.7 q=51.0 size=       1KiB time=00:00:02.40 bitrate=   2.1kbits/s speed=0.122x elapsed=0:00:19.64    \nframe=   74 fps=3.7 q=50.0 size=       1KiB time=00:00:02.46 bitrate=   2.1kbits/s speed=0.122x elapsed=0:00:20.15    \nframe=   75 fps=3.6 q=50.0 size=       1KiB time=00:00:02.50 bitrate=   2.0kbits/s speed=0.121x elapsed=0:00:20.67    \nframe=   77 fps=3.6 q=51.0 size=       1KiB time=00:00:02.56 bitrate=   2.0kbits/s speed=0.121x elapsed=0:00:21.20    \nframe=   79 fps=3.6 q=51.0 size=       1KiB time=00:00:02.63 bitrate=   1.9kbits/s speed=0.121x elapsed=0:00:21.72    \nframe=   80 fps=3.6 q=51.0 size=       1KiB time=00:00:02.66 bitrate=   1.9kbits/s speed=0.12x elapsed=0:00:22.26    \nframe=   82 fps=3.6 q=51.0 size=       1KiB time=00:00:02.73 bitrate=   1.9kbits/s speed=0.12x elapsed=0:00:22.79    \nframe=   83 fps=3.6 q=50.0 size=       1KiB time=00:00:02.76 bitrate=   1.8kbits/s speed=0.118x elapsed=0:00:23.34    \nframe=   84 fps=3.5 q=51.0 size=       1KiB time=00:00:02.80 bitrate=   1.8kbits/s speed=0.117x elapsed=0:00:23.86    \nframe=   86 fps=3.5 q=51.0 size=       1KiB time=00:00:02.86 bitrate=   1.8kbits/s speed=0.118x elapsed=0:00:24.38    \nframe=   87 fps=3.5 q=51.0 size=       1KiB time=00:00:02.90 bitrate=   1.7kbits/s speed=0.116x elapsed=0:00:24.90    \nframe=   90 fps=3.5 q=51.0 size=       1KiB time=00:00:03.00 bitrate=   1.7kbits/s speed=0.118x elapsed=0:00:25.41    \nframe=   91 fps=3.5 q=29.0 size=       1KiB time=00:00:03.03 bitrate=   1.7kbits/s speed=0.117x elapsed=0:00:25.93    \nframe=   93 fps=3.5 q=50.0 size=       1KiB time=00:00:03.10 bitrate=   1.6kbits/s speed=0.117x elapsed=0:00:26.44    \nframe=   95 fps=3.5 q=51.0 size=       1KiB time=00:00:03.16 bitrate=   1.6kbits/s speed=0.117x elapsed=0:00:26.98    \nframe=   97 fps=3.5 q=52.0 size=       1KiB time=00:00:03.23 bitrate=   1.6kbits/s speed=0.118x elapsed=0:00:27.51    \nframe=   99 fps=3.5 q=52.0 size=       1KiB time=00:00:03.30 bitrate=   1.5kbits/s speed=0.118x elapsed=0:00:28.04    \nframe=  101 fps=3.5 q=30.0 size=       1KiB time=00:00:03.36 bitrate=   1.5kbits/s speed=0.118x elapsed=0:00:28.55    \nframe=  103 fps=3.5 q=51.0 size=       1KiB time=00:00:03.43 bitrate=   1.5kbits/s speed=0.118x elapsed=0:00:29.08    \nframe=  105 fps=3.5 q=51.0 size=       1KiB time=00:00:03.50 bitrate=   1.4kbits/s speed=0.118x elapsed=0:00:29.63    \nframe=  107 fps=3.6 q=52.0 size=       1KiB time=00:00:03.56 bitrate=   1.4kbits/s speed=0.118x elapsed=0:00:30.13    \nframe=  109 fps=3.6 q=52.0 size=       1KiB time=00:00:03.63 bitrate=   1.4kbits/s speed=0.119x elapsed=0:00:30.65    \nframe=  110 fps=3.5 q=52.0 size=       1KiB time=00:00:03.66 bitrate=   1.4kbits/s speed=0.118x elapsed=0:00:31.18    \nframe=  113 fps=3.6 q=51.0 size=       1KiB time=00:00:03.76 bitrate=   1.3kbits/s speed=0.119x elapsed=0:00:31.70    \nframe=  114 fps=3.5 q=51.0 size=       1KiB time=00:00:03.80 bitrate=   1.3kbits/s speed=0.118x elapsed=0:00:32.22    \nframe=  116 fps=3.5 q=52.0 size=       1KiB time=00:00:03.86 bitrate=   1.3kbits/s speed=0.118x elapsed=0:00:32.74    \nframe=  118 fps=3.5 q=52.0 size=       1KiB time=00:00:03.93 bitrate=   1.3kbits/s speed=0.118x elapsed=0:00:33.26    \nframe=  119 fps=3.5 q=52.0 size=       1KiB time=00:00:03.96 bitrate=   1.3kbits/s speed=0.117x elapsed=0:00:33.77    \nframe=  120 fps=3.5 q=52.0 size=       1KiB time=00:00:04.00 bitrate=   1.3kbits/s speed=0.117x elapsed=0:00:34.29    \nframe=  123 fps=3.5 q=52.0 size=       1KiB time=00:00:04.10 bitrate=   1.2kbits/s speed=0.118x elapsed=0:00:34.80    \nframe=  125 fps=3.5 q=53.0 size=       1KiB time=00:00:04.16 bitrate=   1.2kbits/s speed=0.118x elapsed=0:00:35.32    \nframe=  126 fps=3.5 q=53.0 size=       1KiB time=00:00:04.20 bitrate=   1.2kbits/s speed=0.117x elapsed=0:00:35.84    \nframe=  126 fps=3.5 q=53.0 size=       1KiB time=00:00:04.20 bitrate=   1.2kbits/s speed=0.115x elapsed=0:00:36.37    \nframe=  126 fps=3.4 q=53.0 size=       1KiB time=00:00:04.20 bitrate=   1.2kbits/s speed=0.114x elapsed=0:00:36.89    \nframe=  126 fps=3.4 q=53.0 size=       1KiB time=00:00:04.20 bitrate=   1.2kbits/s speed=0.112x elapsed=0:00:37.41    \nframe=  126 fps=3.3 q=53.0 size=       1KiB time=00:00:04.20 bitrate=   1.2kbits/s speed=0.111x elapsed=0:00:37.92    \nframe=  126 fps=3.3 q=53.0 size=       1KiB time=00:00:04.20 bitrate=   1.2kbits/s speed=0.109x elapsed=0:00:38.44    \nframe=  126 fps=3.2 q=53.0 size=       1KiB time=00:00:04.20 bitrate=   1.2kbits/s speed=0.108x elapsed=0:00:38.98    \nframe=  126 fps=3.2 q=53.0 size=       1KiB time=00:00:04.20 bitrate=   1.2kbits/s speed=0.106x elapsed=0:00:39.50    \nframe=  126 fps=3.1 q=53.0 size=       1KiB time=00:00:04.20 bitrate=   1.2kbits/s speed=0.105x elapsed=0:00:40.03    \nframe=  126 fps=3.1 q=53.0 size=       1KiB time=00:00:04.20 bitrate=   1.2kbits/s speed=0.104x elapsed=0:00:40.55    \nframe=  126 fps=3.1 q=53.0 size=       1KiB time=00:00:04.20 bitrate=   1.2kbits/s speed=0.102x elapsed=0:00:41.09    \nframe=  126 fps=3.0 q=53.0 size=       1KiB time=00:00:04.20 bitrate=   1.2kbits/s speed=0.101x elapsed=0:00:41.66    \nframe=  126 fps=3.0 q=53.0 size=       1KiB time=00:00:04.20 bitrate=   1.2kbits/s speed=0.0993x elapsed=0:00:42.31    \nframe=  126 fps=2.9 q=53.0 size=       1KiB time=00:00:04.20 bitrate=   1.2kbits/s speed=0.098x elapsed=0:00:42.83    \n[out#0/webm @ 000002a653140b80] video:4569KiB audio:0KiB subtitle:0KiB other streams:0KiB global headers:0KiB muxing overhead: 0.038732%\nframe=  150 fps=3.5 q=52.0 Lsize=    4570KiB time=00:00:05.00 bitrate=7488.1kbits/s speed=0.116x elapsed=0:00:43.22    \n",
  "seconds": 43.86117100715637,
  "probe_out": {}
}